<?xml version="1.0" encoding="UTF-8" standalone="no"?>
<svg
   width="500"
   zoomAndPan="magnify"
   viewBox="0 0 375 374.999991"
   height="500"
   preserveAspectRatio="xMidYMid meet"
   version="1.0"
   id="svg153"
   sodipodi:docname="1.svg"
   xmlns:inkscape="http://www.inkscape.org/namespaces/inkscape"
   xmlns:sodipodi="http://sodipodi.sourceforge.net/DTD/sodipodi-0.dtd"
   xmlns="http://www.w3.org/2000/svg"
   xmlns:svg="http://www.w3.org/2000/svg">
  <sodipodi:namedview
     id="namedview155"
     pagecolor="#ffffff"
     bordercolor="#000000"
     borderopacity="0.25"
     inkscape:showpageshadow="2"
     inkscape:pageopacity="0.0"
     inkscape:pagecheckerboard="0"
     inkscape:deskcolor="#d1d1d1" />
  <defs
     id="defs67">
    <g
       id="g2" />
    <clipPath
       id="f8008ffb9f">
      <path
         d="M 99 158 L 164 158 L 164 236 L 99 236 Z M 99 158 "
         clip-rule="nonzero"
         id="path4" />
    </clipPath>
    <clipPath
       id="ea4ec1c995">
      <path
         d="M 72.125 129.960938 L 156.648438 97.886719 L 199.167969 209.929688 L 114.644531 242.003906 Z M 72.125 129.960938 "
         clip-rule="nonzero"
         id="path7" />
    </clipPath>
    <clipPath
       id="b9f56f4073">
      <path
         d="M 72.125 129.960938 L 156.648438 97.886719 L 199.167969 209.929688 L 114.644531 242.003906 Z M 72.125 129.960938 "
         clip-rule="nonzero"
         id="path10" />
    </clipPath>
    <clipPath
       id="4b745bbd5a">
      <path
         d="M 130 169 L 148 169 L 148 187 L 130 187 Z M 130 169 "
         clip-rule="nonzero"
         id="path13" />
    </clipPath>
    <clipPath
       id="4a9662a602">
      <path
         d="M 72.125 129.960938 L 156.648438 97.886719 L 199.167969 209.929688 L 114.644531 242.003906 Z M 72.125 129.960938 "
         clip-rule="nonzero"
         id="path16" />
    </clipPath>
    <clipPath
       id="c9e898d02d">
      <path
         d="M 72.125 129.960938 L 156.648438 97.886719 L 199.167969 209.929688 L 114.644531 242.003906 Z M 72.125 129.960938 "
         clip-rule="nonzero"
         id="path19" />
    </clipPath>
    <clipPath
       id="cb6be3f59f">
      <path
         d="M 112 113 L 129 113 L 129 141 L 112 141 Z M 112 113 "
         clip-rule="nonzero"
         id="path22" />
    </clipPath>
    <clipPath
       id="9534753172">
      <path
         d="M 72.125 129.960938 L 156.648438 97.886719 L 199.167969 209.929688 L 114.644531 242.003906 Z M 72.125 129.960938 "
         clip-rule="nonzero"
         id="path25" />
    </clipPath>
    <clipPath
       id="7db85154ee">
      <path
         d="M 72.125 129.960938 L 156.648438 97.886719 L 199.167969 209.929688 L 114.644531 242.003906 Z M 72.125 129.960938 "
         clip-rule="nonzero"
         id="path28" />
    </clipPath>
    <clipPath
       id="d61269c7d2">
      <path
         d="M 131 118 L 148 118 L 148 145 L 131 145 Z M 131 118 "
         clip-rule="nonzero"
         id="path31" />
    </clipPath>
    <clipPath
       id="d189846d8f">
      <path
         d="M 72.125 129.960938 L 156.648438 97.886719 L 199.167969 209.929688 L 114.644531 242.003906 Z M 72.125 129.960938 "
         clip-rule="nonzero"
         id="path34" />
    </clipPath>
    <clipPath
       id="20fbe0c04e">
      <path
         d="M 72.125 129.960938 L 156.648438 97.886719 L 199.167969 209.929688 L 114.644531 242.003906 Z M 72.125 129.960938 "
         clip-rule="nonzero"
         id="path37" />
    </clipPath>
    <clipPath
       id="47ec5ae856">
      <path
         d="M 93 137 L 120 137 L 120 153 L 93 153 Z M 93 137 "
         clip-rule="nonzero"
         id="path40" />
    </clipPath>
    <clipPath
       id="df35bbe28e">
      <path
         d="M 72.125 129.960938 L 156.648438 97.886719 L 199.167969 209.929688 L 114.644531 242.003906 Z M 72.125 129.960938 "
         clip-rule="nonzero"
         id="path43" />
    </clipPath>
    <clipPath
       id="34f8896eba">
      <path
         d="M 72.125 129.960938 L 156.648438 97.886719 L 199.167969 209.929688 L 114.644531 242.003906 Z M 72.125 129.960938 "
         clip-rule="nonzero"
         id="path46" />
    </clipPath>
    <clipPath
       id="f0ffbfdde2">
      <path
         d="M 81 154 L 109 154 L 109 170 L 81 170 Z M 81 154 "
         clip-rule="nonzero"
         id="path49" />
    </clipPath>
    <clipPath
       id="e7de34b5b6">
      <path
         d="M 72.125 129.960938 L 156.648438 97.886719 L 199.167969 209.929688 L 114.644531 242.003906 Z M 72.125 129.960938 "
         clip-rule="nonzero"
         id="path52" />
    </clipPath>
    <clipPath
       id="82f22ad030">
      <path
         d="M 72.125 129.960938 L 156.648438 97.886719 L 199.167969 209.929688 L 114.644531 242.003906 Z M 72.125 129.960938 "
         clip-rule="nonzero"
         id="path55" />
    </clipPath>
    <clipPath
       id="d139e9ca2f">
      <path
         d="M 151 123 L 168 123 L 168 150 L 151 150 Z M 151 123 "
         clip-rule="nonzero"
         id="path58" />
    </clipPath>
    <clipPath
       id="5dbe886992">
      <path
         d="M 72.125 129.960938 L 156.648438 97.886719 L 199.167969 209.929688 L 114.644531 242.003906 Z M 72.125 129.960938 "
         clip-rule="nonzero"
         id="path61" />
    </clipPath>
    <clipPath
       id="90dfd20031">
      <path
         d="M 72.125 129.960938 L 156.648438 97.886719 L 199.167969 209.929688 L 114.644531 242.003906 Z M 72.125 129.960938 "
         clip-rule="nonzero"
         id="path64" />
    </clipPath>
  </defs>
  <rect
     x="-37.5"
     width="450"
     fill="#ffffff"
     y="-37.499999"
     height="449.999989"
     fill-opacity="1"
     id="rect69" />
  <rect
     x="-37.5"
     width="450"
     fill="#ffffff"
     y="-37.499999"
     height="449.999989"
     fill-opacity="1"
     id="rect71" />
  <g
     clip-path="url(#f8008ffb9f)"
     id="g79">
    <g
       clip-path="url(#ea4ec1c995)"
       id="g77">
      <g
         clip-path="url(#b9f56f4073)"
         id="g75">
        <path
           fill="#2c8391"
           d="M 142.757812 188.304688 C 130.125 193.519531 99.316406 172.109375 99.316406 172.109375 C 140.714844 207.320312 132.921875 235.046875 132.921875 235.046875 C 156.824219 200.976562 161.746094 172.09375 163.875 158.488281 C 163.875 158.488281 152.539062 184.265625 142.757812 188.304688 "
           fill-opacity="1"
           fill-rule="nonzero"
           id="path73" />
      </g>
    </g>
  </g>
  <g
     clip-path="url(#4b745bbd5a)"
     id="g87">
    <g
       clip-path="url(#4a9662a602)"
       id="g85">
      <g
         clip-path="url(#c9e898d02d)"
         id="g83">
        <path
           fill="#2c8391"
           d="M 146.996094 175.078125 C 148.691406 179.546875 146.445312 184.546875 141.976562 186.242188 C 137.503906 187.941406 132.507812 185.691406 130.808594 181.222656 C 129.113281 176.75 131.363281 171.753906 135.832031 170.058594 C 140.300781 168.359375 145.300781 170.609375 146.996094 175.078125 "
           fill-opacity="1"
           fill-rule="nonzero"
           id="path81" />
      </g>
    </g>
  </g>
  <g
     clip-path="url(#cb6be3f59f)"
     id="g95">
    <g
       clip-path="url(#9534753172)"
       id="g93">
      <g
         clip-path="url(#7db85154ee)"
         id="g91">
        <path
           fill="#2c8391"
           d="M 124.746094 140.847656 L 123.664062 140.335938 C 122.738281 139.902344 114.578125 135.972656 113.15625 132.222656 C 111.78125 128.601562 113.933594 117.085938 114.183594 115.785156 L 114.539062 113.941406 L 116.023438 115.085938 C 117.074219 115.894531 126.324219 123.085938 127.699219 126.703125 C 129.121094 130.453125 125.621094 138.804688 125.21875 139.746094 L 124.746094 140.847656 "
           fill-opacity="1"
           fill-rule="nonzero"
           id="path89" />
      </g>
    </g>
  </g>
  <g
     clip-path="url(#d61269c7d2)"
     id="g103">
    <g
       clip-path="url(#d189846d8f)"
       id="g101">
      <g
         clip-path="url(#20fbe0c04e)"
         id="g99">
        <path
           fill="#2c8391"
           d="M 144.480469 122.449219 C 140.566406 125.234375 135.382812 129.355469 134.511719 131.292969 C 133.664062 133.179688 134.785156 138.171875 135.878906 141.570312 C 139.148438 140.136719 143.632812 137.664062 144.480469 135.773438 C 145.351562 133.835938 144.996094 127.226562 144.480469 122.449219 Z M 134.503906 144.636719 L 134.097656 143.507812 C 133.75 142.546875 130.761719 133.996094 132.402344 130.34375 C 133.992188 126.8125 143.65625 120.1875 144.753906 119.445312 L 146.308594 118.394531 L 146.550781 120.253906 C 146.722656 121.566406 148.175781 133.191406 146.589844 136.722656 C 144.945312 140.378906 136.566406 143.8125 135.613281 144.191406 L 134.503906 144.636719 "
           fill-opacity="1"
           fill-rule="nonzero"
           id="path97" />
      </g>
    </g>
  </g>
  <g
     clip-path="url(#47ec5ae856)"
     id="g111">
    <g
       clip-path="url(#df35bbe28e)"
       id="g109">
      <g
         clip-path="url(#34f8896eba)"
         id="g107">
        <path
           fill="#2c8391"
           d="M 106.617188 150.144531 C 108.503906 150.992188 113.5 149.871094 116.898438 148.777344 C 115.460938 145.507812 112.988281 141.023438 111.101562 140.175781 C 109.164062 139.304688 102.554688 139.660156 97.777344 140.175781 C 100.558594 144.089844 104.679688 149.273438 106.617188 150.144531 Z M 118.835938 150.558594 C 117.871094 150.90625 109.324219 153.898438 105.667969 152.253906 C 102.136719 150.664062 95.515625 141 94.769531 139.902344 L 93.71875 138.351562 L 95.578125 138.105469 C 96.890625 137.933594 108.515625 136.480469 112.050781 138.066406 C 115.703125 139.710938 119.136719 148.09375 119.515625 149.042969 L 119.960938 150.152344 L 118.835938 150.558594 "
           fill-opacity="1"
           fill-rule="nonzero"
           id="path105" />
      </g>
    </g>
  </g>
  <g
     clip-path="url(#f0ffbfdde2)"
     id="g119">
    <g
       clip-path="url(#e7de34b5b6)"
       id="g117">
      <g
         clip-path="url(#82f22ad030)"
         id="g115">
        <path
           fill="#2c8391"
           d="M 106.949219 167.71875 C 105.988281 168.066406 97.4375 171.058594 93.78125 169.414062 C 90.25 167.824219 83.628906 158.160156 82.882812 157.0625 L 81.832031 155.507812 L 83.691406 155.265625 C 85.007812 155.09375 96.632812 153.636719 100.164062 155.226562 C 103.820312 156.871094 107.25 165.253906 107.632812 166.203125 L 108.074219 167.3125 L 106.949219 167.71875 "
           fill-opacity="1"
           fill-rule="nonzero"
           id="path113" />
      </g>
    </g>
  </g>
  <g
     clip-path="url(#d139e9ca2f)"
     id="g127">
    <g
       clip-path="url(#5dbe886992)"
       id="g125">
      <g
         clip-path="url(#90dfd20031)"
         id="g123">
        <path
           fill="#2c8391"
           d="M 154.929688 149.90625 L 154.484375 148.796875 C 154.105469 147.847656 150.816406 139.40625 152.328125 135.695312 C 153.796875 132.113281 163.222656 125.15625 164.292969 124.371094 L 165.804688 123.265625 L 166.113281 125.117188 C 166.332031 126.425781 168.195312 137.992188 166.730469 141.578125 C 165.214844 145.285156 156.960938 149.011719 156.023438 149.425781 L 154.929688 149.90625 "
           fill-opacity="1"
           fill-rule="nonzero"
           id="path121" />
      </g>
    </g>
  </g>
  <g
     fill="#2c8391"
     fill-opacity="1"
     id="g135">
    <g
       transform="translate(154.035543, 215.196663)"
       id="g133">
      <g
         id="g131">
        <path
           d="M 24.09375 -26.84375 C 23.175781 -29.1875 22.664062 -30.410156 22.5625 -30.515625 L 22.484375 -30.4375 C 22.484375 -30.382812 22.457031 -30.332031 22.40625 -30.28125 C 22.40625 -30.132812 22.078125 -29.320312 21.421875 -27.84375 C 18.515625 -20.90625 17.0625 -17.359375 17.0625 -17.203125 C 17.0625 -17.148438 18.816406 -17.125 22.328125 -17.125 L 27.609375 -17.125 L 27.234375 -18.125 C 27.179688 -18.382812 27 -18.882812 26.6875 -19.625 C 26.382812 -20.363281 26.179688 -20.9375 26.078125 -21.34375 C 25.929688 -21.851562 25.601562 -22.769531 25.09375 -24.09375 C 24.832031 -24.757812 24.625 -25.320312 24.46875 -25.78125 C 24.320312 -26.238281 24.195312 -26.59375 24.09375 -26.84375 Z M 22.40625 -41.53125 C 22.5625 -41.632812 22.921875 -41.6875 23.484375 -41.6875 C 24.347656 -41.6875 25.097656 -41.546875 25.734375 -41.265625 C 26.367188 -40.984375 26.894531 -40.4375 27.3125 -39.625 C 27.664062 -38.90625 28.785156 -36.210938 30.671875 -31.546875 C 32.554688 -26.878906 35.207031 -20.132812 38.625 -11.3125 C 39.34375 -9.582031 39.90625 -8.234375 40.3125 -7.265625 C 40.71875 -6.296875 41 -5.6875 41.15625 -5.4375 C 41.707031 -4.507812 42.519531 -3.867188 43.59375 -3.515625 C 44.769531 -3.160156 45.410156 -2.550781 45.515625 -1.6875 C 45.515625 -1.28125 45.410156 -0.894531 45.203125 -0.53125 C 44.941406 -0.0195312 44.484375 0.257812 43.828125 0.3125 C 43.472656 0.351562 42.71875 0.375 41.5625 0.375 C 40.414062 0.375 38.875 0.375 36.9375 0.375 L 36.25 0.375 C 31.050781 0.375 28.320312 0.273438 28.0625 0.078125 C 27.40625 -0.222656 27.050781 -0.734375 27 -1.453125 C 26.945312 -2.171875 27.203125 -2.734375 27.765625 -3.140625 C 27.960938 -3.335938 28.394531 -3.515625 29.0625 -3.671875 C 30.289062 -3.972656 30.976562 -4.503906 31.125 -5.265625 C 31.28125 -6.035156 31.023438 -7.390625 30.359375 -9.328125 C 30.109375 -10.046875 29.894531 -10.617188 29.71875 -11.046875 C 29.539062 -11.484375 29.398438 -11.828125 29.296875 -12.078125 L 28.984375 -12.765625 L 22.109375 -12.765625 L 15.21875 -12.84375 L 15.0625 -12.390625 C 15.007812 -12.335938 14.816406 -11.925781 14.484375 -11.15625 C 14.160156 -10.394531 13.804688 -9.554688 13.421875 -8.640625 C 13.035156 -7.722656 12.691406 -6.867188 12.390625 -6.078125 C 12.085938 -5.285156 11.9375 -4.835938 11.9375 -4.734375 C 11.9375 -4.328125 12.394531 -3.921875 13.3125 -3.515625 C 14.070312 -3.265625 14.566406 -2.84375 14.796875 -2.25 C 15.023438 -1.664062 14.9375 -1.066406 14.53125 -0.453125 C 14.320312 -0.046875 13.890625 0.207031 13.234375 0.3125 C 12.921875 0.351562 12.289062 0.375 11.34375 0.375 C 10.40625 0.375 9.148438 0.375 7.578125 0.375 C 3.742188 0.375 1.675781 0.300781 1.375 0.15625 C 0.707031 -0.15625 0.375 -0.664062 0.375 -1.375 C 0.375 -1.832031 0.550781 -2.238281 0.90625 -2.59375 C 1.269531 -2.957031 1.601562 -3.164062 1.90625 -3.21875 C 3.789062 -3.414062 5.015625 -3.921875 5.578125 -4.734375 C 5.890625 -5.046875 6.273438 -5.765625 6.734375 -6.890625 C 9.378906 -13.410156 11.707031 -19.09375 13.71875 -23.9375 C 15.738281 -28.78125 17.460938 -32.859375 18.890625 -36.171875 C 19.453125 -37.453125 19.898438 -38.445312 20.234375 -39.15625 C 20.566406 -39.875 20.78125 -40.304688 20.875 -40.453125 C 21.238281 -40.960938 21.75 -41.320312 22.40625 -41.53125 Z M 22.40625 -41.53125 "
           id="path129" />
      </g>
    </g>
  </g>
  <g
     fill="#2c8391"
     fill-opacity="1"
     id="g143">
    <g
       transform="translate(199.839419, 215.196663)"
       id="g141">
      <g
         id="g139">
        <path
           d="M 35.5625 -41.765625 C 36.53125 -41.765625 37.21875 -41.429688 37.625 -40.765625 L 38.015625 -40.3125 L 38.015625 -33.8125 C 38.066406 -29.519531 38.066406 -27.195312 38.015625 -26.84375 C 37.960938 -26.539062 37.753906 -26.207031 37.390625 -25.84375 C 37.035156 -25.488281 36.734375 -25.257812 36.484375 -25.15625 C 35.765625 -24.957031 35.097656 -25.0625 34.484375 -25.46875 C 33.878906 -25.875 33.578125 -26.460938 33.578125 -27.234375 C 33.578125 -28.753906 33.28125 -30.140625 32.6875 -31.390625 C 32.101562 -32.640625 31.3125 -33.695312 30.3125 -34.5625 C 29.320312 -35.4375 28.175781 -36.113281 26.875 -36.59375 C 25.582031 -37.082031 24.222656 -37.328125 22.796875 -37.328125 C 20.910156 -37.328125 19.25 -36.914062 17.8125 -36.09375 C 16.382812 -35.28125 15.1875 -34.195312 14.21875 -32.84375 C 13.25 -31.5 12.5 -30 11.96875 -28.34375 C 11.4375 -26.6875 11.066406 -25.015625 10.859375 -23.328125 C 10.804688 -22.867188 10.765625 -22.320312 10.734375 -21.6875 C 10.710938 -21.050781 10.726562 -20.296875 10.78125 -19.421875 C 10.832031 -18.554688 10.882812 -17.816406 10.9375 -17.203125 C 10.988281 -16.597656 11.066406 -16.085938 11.171875 -15.671875 C 11.734375 -12.765625 12.773438 -10.367188 14.296875 -8.484375 C 15.828125 -6.597656 17.691406 -5.300781 19.890625 -4.59375 C 20.546875 -4.382812 21.691406 -4.28125 23.328125 -4.28125 C 24.085938 -4.28125 24.722656 -4.289062 25.234375 -4.3125 C 25.742188 -4.34375 26.128906 -4.382812 26.390625 -4.4375 C 30.316406 -5.457031 33.320312 -7.726562 35.40625 -11.25 C 35.664062 -11.65625 35.859375 -11.957031 35.984375 -12.15625 C 36.109375 -12.363281 36.195312 -12.492188 36.25 -12.546875 C 36.65625 -12.742188 37.085938 -12.753906 37.546875 -12.578125 C 38.015625 -12.398438 38.347656 -12.132812 38.546875 -11.78125 C 38.804688 -11.425781 38.578125 -10.507812 37.859375 -9.03125 C 36.273438 -5.707031 34.222656 -3.332031 31.703125 -1.90625 C 29.179688 -0.476562 26.160156 0.234375 22.640625 0.234375 C 17.390625 0.234375 12.925781 -1.101562 9.25 -3.78125 C 5.582031 -6.457031 3.265625 -10.523438 2.296875 -15.984375 C 1.890625 -18.585938 1.828125 -21.1875 2.109375 -23.78125 C 2.390625 -26.382812 3.035156 -28.65625 4.046875 -30.59375 C 5.785156 -34.007812 8.222656 -36.644531 11.359375 -38.5 C 14.492188 -40.363281 17.945312 -41.296875 21.71875 -41.296875 C 24.476562 -41.296875 27.3125 -40.765625 30.21875 -39.703125 C 31.226562 -39.390625 31.863281 -39.234375 32.125 -39.234375 C 32.582031 -39.234375 33.039062 -39.664062 33.5 -40.53125 C 33.851562 -41.351562 34.539062 -41.765625 35.5625 -41.765625 Z M 35.5625 -41.765625 "
           id="path137" />
      </g>
    </g>
  </g>
  <g
     fill="#2c8391"
     fill-opacity="1"
     id="g151">
    <g
       transform="translate(240.902312, 215.196663)"
       id="g149">
      <g
         id="g147">
        <path
           d="M 27 -41.84375 C 27.664062 -42.09375 28.273438 -42.113281 28.828125 -41.90625 C 29.085938 -41.757812 29.367188 -41.53125 29.671875 -41.21875 C 29.984375 -40.914062 30.164062 -40.640625 30.21875 -40.390625 C 30.257812 -40.285156 30.28125 -39.757812 30.28125 -38.8125 C 30.28125 -37.875 30.28125 -36.5625 30.28125 -34.875 C 30.28125 -31.300781 30.257812 -29.414062 30.21875 -29.21875 C 29.957031 -28.601562 29.519531 -28.117188 28.90625 -27.765625 C 28.25 -27.460938 27.5625 -27.515625 26.84375 -27.921875 C 26.4375 -28.117188 26.03125 -28.675781 25.625 -29.59375 C 24.851562 -31.738281 23.585938 -33.535156 21.828125 -34.984375 C 20.078125 -36.441406 18.050781 -37.171875 15.75 -37.171875 C 14.832031 -37.171875 13.828125 -37.054688 12.734375 -36.828125 C 11.640625 -36.597656 10.8125 -36.078125 10.25 -35.265625 C 9.382812 -34.085938 9.234375 -32.8125 9.796875 -31.4375 C 10.304688 -30.363281 11.363281 -29.1875 12.96875 -27.90625 C 14.570312 -26.632812 17.082031 -24.957031 20.5 -22.875 C 26.5625 -19.09375 30.003906 -15.546875 30.828125 -12.234375 C 30.921875 -11.671875 30.976562 -11.070312 31 -10.4375 C 31.03125 -9.800781 31 -9.078125 30.90625 -8.265625 C 30.238281 -3.929688 27.078125 -1.253906 21.421875 -0.234375 C 20.804688 -0.078125 19.609375 0 17.828125 0 C 15.523438 0 12.894531 -0.359375 9.9375 -1.078125 C 8.71875 -1.429688 7.878906 -1.609375 7.421875 -1.609375 C 6.648438 -1.609375 6.0625 -1.222656 5.65625 -0.453125 L 5.4375 0.078125 L 4.28125 0.078125 C 3.15625 0.078125 2.414062 -0.253906 2.0625 -0.921875 C 1.863281 -1.222656 1.765625 -1.550781 1.765625 -1.90625 C 1.710938 -2.164062 1.6875 -2.675781 1.6875 -3.4375 C 1.6875 -4.207031 1.6875 -5.203125 1.6875 -6.421875 C 1.738281 -7.648438 1.765625 -8.632812 1.765625 -9.375 C 1.765625 -10.113281 1.765625 -10.609375 1.765625 -10.859375 C 1.765625 -11.367188 1.863281 -11.753906 2.0625 -12.015625 C 2.414062 -12.671875 3.03125 -13 3.90625 -13 C 4.414062 -13 4.796875 -12.882812 5.046875 -12.65625 C 5.304688 -12.425781 5.640625 -11.90625 6.046875 -11.09375 C 7.066406 -8.894531 8.453125 -7.390625 10.203125 -6.578125 C 11.960938 -5.765625 13.96875 -5.359375 16.21875 -5.359375 C 17.238281 -5.359375 18.101562 -5.492188 18.8125 -5.765625 C 19.53125 -6.046875 20.242188 -6.546875 20.953125 -7.265625 C 21.460938 -7.828125 21.796875 -8.3125 21.953125 -8.71875 C 22.109375 -9.125 22.1875 -9.738281 22.1875 -10.5625 C 22.1875 -11.882812 21.800781 -12.953125 21.03125 -13.765625 C 20.269531 -14.578125 19.378906 -15.34375 18.359375 -16.0625 C 17.953125 -16.3125 17.328125 -16.675781 16.484375 -17.15625 C 15.640625 -17.644531 14.582031 -18.25 13.3125 -18.96875 C 12.082031 -19.632812 10.804688 -20.359375 9.484375 -21.140625 C 8.160156 -21.929688 6.945312 -22.8125 5.84375 -23.78125 C 4.75 -24.75 3.832031 -25.84375 3.09375 -27.0625 C 2.351562 -28.289062 1.957031 -29.695312 1.90625 -31.28125 C 1.757812 -33.78125 2.5 -35.847656 4.125 -37.484375 C 6.726562 -40.128906 10.578125 -41.453125 15.671875 -41.453125 C 18.328125 -41.453125 20.878906 -41.144531 23.328125 -40.53125 C 24.046875 -40.382812 24.582031 -40.3125 24.9375 -40.3125 C 25.394531 -40.3125 25.648438 -40.382812 25.703125 -40.53125 C 25.804688 -40.632812 25.894531 -40.738281 25.96875 -40.84375 C 26.039062 -40.945312 26.128906 -41.070312 26.234375 -41.21875 C 26.585938 -41.582031 26.84375 -41.789062 27 -41.84375 Z M 27 -41.84375 "
           id="path145" />
      </g>
    </g>
  </g>
</svg>
